<?xml version="1.0" encoding="UTF-8"?>
<svg width="41px" height="35px" viewBox="0 0 41 35" version="1.1" xmlns="http://www.w3.org/2000/svg" xmlns:xlink="http://www.w3.org/1999/xlink">
    <!-- Generator: Sketch 63.1 (92452) - https://sketch.com -->
    <title>icon-diamond</title>
    <desc>Created with Sketch.</desc>
    <g id="Page-1" stroke="none" stroke-width="1" fill="none" fill-rule="evenodd">
        <g id="page-landing" transform="translate(-1147.000000, -735.000000)" fill="#1F8CE3" fill-rule="nonzero">
            <g id="landing-meetdiamond" transform="translate(0.000000, 517.000000)">
                <g id="card-feature" transform="translate(1027.000000, 208.000000)">
                    <g id="icon-diamond" transform="translate(120.000000, 10.000000)">
                        <path d="M7.75775331,0.685087713 L0.217507102,11.125446 C-0.0889169034,11.5491499 -0.0571318655,12.1844446 0.29000947,12.5754934 L19.4306345,34.6162131 C19.8644886,35.1080111 20.7368371,35.1080111 21.1706913,34.6162131 L40.3113163,12.5754934 C40.6584576,12.1844446 40.6902427,11.5491499 40.3838187,11.125446 L32.8435724,0.685087713 C32.6270514,0.391714134 32.2656416,0.210980232 31.9010417,0.213822325 L8.70028409,0.213822325 C8.29166075,0.200481889 7.94997159,0.415088897 7.75775331,0.685087713 L7.75775331,0.685087713 Z M10.349742,2.53389808 L17.9986837,2.53389808 L12.8873248,9.47604616 L10.349742,2.53389808 Z M22.602642,2.53389808 L30.2515838,2.53389808 L27.7140009,9.47604616 L22.602642,2.53389808 Z M20.3006629,3.34952071 L25.7020893,10.6541806 L14.9173911,10.6541806 L20.3006629,3.34952071 Z M8.35586884,3.80268951 L10.8572585,10.6541806 L3.40761127,10.6541806 L8.35586884,3.80268951 Z M32.2454569,3.80268951 L37.1937145,10.6541806 L29.7440672,10.6541806 L32.2454569,3.80268951 Z M3.69762074,12.9742564 L11.6909777,12.9742564 L17.454974,28.8160237 L3.69762074,12.9742564 Z M14.1560582,12.9742564 L26.4633641,12.9742564 L20.3006629,29.8854046 L14.1560582,12.9742564 Z M28.910348,12.9742564 L36.903705,12.9742564 L23.1463518,28.8160237 L28.910348,12.9742564 Z" id="Shape"></path>
                    </g>
                </g>
            </g>
        </g>
    </g>
</svg>