<?xml version="1.0" encoding="UTF-8"?>
<svg width="31px" height="35px" viewBox="0 0 31 35" version="1.1" xmlns="http://www.w3.org/2000/svg" xmlns:xlink="http://www.w3.org/1999/xlink">
    <!-- Generator: Sketch 63.1 (92452) - https://sketch.com -->
    <title>icon-document</title>
    <desc>Created with Sketch.</desc>
    <g id="Page-1" stroke="none" stroke-width="1" fill="none" fill-rule="evenodd">
        <g id="page-landing" transform="translate(-852.000000, -735.000000)" fill="#1F8CE3" fill-rule="nonzero">
            <g id="landing-meetdiamond" transform="translate(0.000000, 517.000000)">
                <g id="card-feature" transform="translate(727.000000, 208.000000)">
                    <g id="icon-document" transform="translate(125.000000, 10.000000)">
                        <path d="M26.8333333,0 L10.5,0 C10.4266025,0 10.3533981,0.00754377517 10.2813667,0.0216416667 L10.2680083,0.0236833333 C10.1716786,0.0448325998 10.0784322,0.0781558804 9.99051667,0.12285 C9.966775,0.134516667 9.9442,0.14665 9.92115833,0.159891667 C9.83146535,0.209470582 9.74874646,0.270730031 9.67516667,0.342066667 L0.341833333,9.6754 C0.270298496,9.74918867 0.208898724,9.83216664 0.15925,9.92215 C0.146416667,9.94455 0.134516667,9.96648333 0.1232,9.98964167 C0.0776068952,10.0790885 0.0438029257,10.174069 0.0226333333,10.2722083 L0.0226333333,10.2750667 C0.00780987246,10.3491327 0,10.4244655 0,10.5 L0,31.5 C0.00212182966,33.4321171 1.56788295,34.9978782 3.5,35 L26.8333333,35 C28.7654504,34.9978782 30.3312115,33.4321171 30.3333333,31.5 L30.3333333,3.5 C30.3312115,1.56788295 28.7654504,0.00212182966 26.8333333,0 L26.8333333,0 Z M9.33333333,3.98335 L9.33333333,8.16666667 C9.33269023,8.81073231 8.81073231,9.33269023 8.16666667,9.33333333 L3.98335,9.33333333 L9.33333333,3.98335 Z M28,31.5 C27.9993569,32.1440656 27.477399,32.6660236 26.8333333,32.6666667 L3.5,32.6666667 C2.85593436,32.6660236 2.33397643,32.1440656 2.33333333,31.5 L2.33333333,11.6666667 L8.16666667,11.6666667 C10.0987837,11.6645448 11.6645448,10.0987837 11.6666667,8.16666667 L11.6666667,2.33333333 L26.8333333,2.33333333 C27.477399,2.33397643 27.9993569,2.85593436 28,3.5 L28,31.5 Z" id="Shape"></path>
                        <path d="M21.5833333,17.5 L12.25,17.5 C11.6056678,17.5 11.0833333,18.0223345 11.0833333,18.6666667 C11.0833333,19.3109989 11.6056678,19.8333333 12.25,19.8333333 L21.5833333,19.8333333 C22.2276655,19.8333333 22.75,19.3109989 22.75,18.6666667 C22.75,18.0223345 22.2276655,17.5 21.5833333,17.5 Z" id="Path"></path>
                        <path d="M21.5833333,24.5 L8.75,24.5 C8.10566779,24.5 7.58333333,25.0223345 7.58333333,25.6666667 C7.58333333,26.3109989 8.10566779,26.8333333 8.75,26.8333333 L21.5833333,26.8333333 C22.2276655,26.8333333 22.75,26.3109989 22.75,25.6666667 C22.75,25.0223345 22.2276655,24.5 21.5833333,24.5 Z" id="Path"></path>
                    </g>
                </g>
            </g>
        </g>
    </g>
</svg>