<?xml version="1.0" encoding="UTF-8"?>
<svg width="46px" height="38px" viewBox="0 0 46 38" version="1.1" xmlns="http://www.w3.org/2000/svg" xmlns:xlink="http://www.w3.org/1999/xlink">
    <!-- Generator: Sketch 63.1 (92452) - https://sketch.com -->
    <title>noun_design_135895</title>
    <desc>Created with Sketch.</desc>
    <g id="Page-1" stroke="none" stroke-width="1" fill="none" fill-rule="evenodd">
        <g id="page-landing" transform="translate(-544.000000, -726.000000)">
            <g id="landing-meetdiamond" transform="translate(0.000000, 517.000000)">
                <g id="noun_design_135895" transform="translate(544.000000, 209.000000)">
                    <polygon id="Path" points="10 29 16 29 16 28 10.7777778 28"></polygon>
                    <polygon id="Path" points="16 31.1 8.16666667 31.1 8 31.5 8 31.9 16 31.9"></polygon>
                    <path d="M41.2676991,17.6732543 C40.7079646,17.6732543 40.25,17.1225296 40.25,16.4216074 C40.25,15.7206851 40.7079646,15.1699605 41.2676991,15.1699605 L45.949115,15.1699605 L45.949115,12.8669302 C45.949115,12.6166008 45.7455752,12.4163373 45.4911504,12.4163373 L34.0929204,12.4163373 C33.9911504,12.4163373 33.8893805,12.4664032 33.7876106,12.516469 C33.7367257,12.516469 33.6858407,12.516469 33.6858407,12.5665349 L23.8141593,18.173913 C23.7632743,18.173913 23.7632743,18.2239789 23.7123894,18.2740448 C23.4070796,18.3741765 23.2035398,18.5744401 23,18.8247694 C22.8982301,19.0250329 22.7455752,19.2252964 22.6438053,19.3754941 C21.5243363,21.027668 19.9469027,22.3293808 18.1150442,23.1304348 C17.6061947,23.3306983 17.300885,23.831357 17.300885,24.3820817 L17.300885,25.9841897 L14.2477876,25.9841897 L10.0243363,25.9841897 L10.0243363,24.3820817 C10.0243363,23.831357 9.71902655,23.3807642 9.21017699,23.1304348 C5.2920354,21.428195 2.74778761,17.5731225 2.74778761,13.3675889 C2.74778761,7.45981555 7.63274336,2.65349144 13.6371681,2.65349144 C18.8783186,2.65349144 23.4070796,6.35836627 24.3230088,11.4150198 C24.3738938,11.7654809 24.5774336,12.0658762 24.8318584,12.2661397 C25.1371681,12.4664032 25.4933628,12.6166008 25.9004425,12.516469 C26.6637168,12.3662714 27.1216814,11.6653491 27.0199115,10.9644269 C25.8495575,4.60606061 20.2013274,0 13.6371681,0 C6.10619469,0 0,6.00790514 0,13.4176548 C0,18.3741765 2.79867257,22.9301713 7.22566372,25.2332016 L7.22566372,33.2437418 C7.22566372,33.6943347 7.4800885,34.1449275 7.83628319,34.3952569 C8.8539823,36.5480896 11.0420354,38 13.6371681,38 C16.1814159,38 18.369469,36.4980237 19.4380531,34.3952569 C19.7942478,34.1449275 20.0486726,33.7444005 20.0486726,33.2437418 L20.0486726,29.8392622 L20.0486726,25.2332016 C20.9646018,24.7325428 21.829646,24.1818182 22.5929204,23.4808959 C23.4579646,22.7299078 24.2721239,21.8787879 24.9336283,20.8774704 C24.9845133,20.7773386 25.0862832,20.6772069 25.1371681,20.5770751 L33.6858407,25.4334651 C33.8384956,25.483531 33.9402655,25.5335968 34.0929204,25.5335968 C34.0929204,25.5335968 34.0929204,25.5335968 34.1438053,25.5335968 C34.1438053,25.5335968 34.1946903,25.5335968 34.1946903,25.5335968 C34.1946903,25.5335968 34.2455752,25.5335968 34.2455752,25.5335968 L45.5420354,25.5335968 C45.7964602,25.5335968 46,25.3333333 46,25.083004 L46,17.6732543 L41.2676991,17.6732543 Z M36.5353982,21.4782609 C36.5353982,22.5797101 35.7721239,23.5309618 34.7035398,23.7812912 C34.7035398,23.7812912 34.7035398,23.7812912 34.6526549,23.7312253 L28.8517699,20.4268775 L28.8517699,17.4729908 L34.5,14.2687747 C35.619469,14.4690382 36.4845133,15.4703557 36.4845133,16.6218709 C36.4845133,17.9235837 35.4159292,18.9749671 34.1438053,19.0250329 C35.4668142,19.1251647 36.5353982,20.1765481 36.5353982,21.4782609 Z M9.97345133,31.6416337 L9.97345133,31.4413702 L9.97345133,31.2411067 L10.1261062,31.2411067 L17.25,31.2411067 L17.25,31.6916996 C17.25,31.8418972 17.199115,31.9920949 17.199115,32.1422925 L10.0243363,32.1422925 C10.0243363,31.9920949 9.97345133,31.8418972 9.97345133,31.6416337 Z M17.300885,29.0382082 L11.8053097,29.0382082 L9.97345133,29.0382082 L9.97345133,28.1370224 L12.5176991,28.1370224 L17.25,28.1370224 L17.25,29.0382082 L17.300885,29.0382082 Z M16.079646,34.2951252 C15.4181416,34.8959157 14.5530973,35.2463768 13.6371681,35.2463768 C12.670354,35.2463768 11.8561947,34.8959157 11.1946903,34.2951252 L16.079646,34.2951252 Z" id="Shape" fill="#1F8CE3" fill-rule="nonzero"></path>
                </g>
            </g>
        </g>
    </g>
</svg>