<?xml version="1.0" encoding="UTF-8"?>
<svg width="55px" height="34px" viewBox="0 0 55 34" version="1.1" xmlns="http://www.w3.org/2000/svg" xmlns:xlink="http://www.w3.org/1999/xlink">
    <!-- Generator: Sketch 63.1 (92452) - https://sketch.com -->
    <title>noun_devices_165980</title>
    <desc>Created with Sketch.</desc>
    <g id="Page-1" stroke="none" stroke-width="1" fill="none" fill-rule="evenodd">
        <g id="page-landing" transform="translate(-240.000000, -730.000000)" fill="#1F8CE3" fill-rule="nonzero">
            <g id="landing-meetdiamond" transform="translate(0.000000, 517.000000)">
                <g id="noun_devices_165980" transform="translate(240.000000, 213.000000)">
                    <path d="M26.697816,31.9510129 L26.8722807,31.9510129 C23.2220781,31.5010801 22.9220696,29.1027878 22.9002615,28.5747819 L29.7403391,28.5747819 L29.7397497,23.394193 C29.7391603,23.3710602 29.7385708,23.3479274 29.7385708,23.3247946 L29.7385708,22.8442108 L2.72365347,22.8442108 C2.46018818,22.8442108 2.24623315,22.6342808 2.24623315,22.3757718 L2.24623315,2.67183753 C2.24623315,2.41332857 2.46018818,2.20339848 2.72365347,2.20339848 L4.67871916,2.20339848 L4.98815826,2.20339848 L33.090533,2.20339848 L33.2443685,2.20339848 L34.7267291,2.20339848 C34.989605,2.20339848 35.2041494,2.41332857 35.2041494,2.67183753 L35.2041494,8.67074892 L37.4497932,8.67074892 L37.4497932,2.67183753 C37.4497932,1.19885697 36.2285402,0 34.7267291,0 L33.090533,0 L4.98815826,0 L2.72365347,0 C1.22243179,0 0.000589407806,1.19885697 0.000589407806,2.67183753 L0.000589407806,22.3757718 C0.000589407806,22.3867599 0.00117881561,22.397748 0.00117881561,22.408736 L0.00117881561,25.9827525 C0.000589407806,25.9966321 0,26.0105118 0,26.0249698 L0,26.2210202 C0,26.2348999 0.000589407806,26.2493579 0.00117881561,26.2632376 L0.00117881561,26.3135514 L0.00235763122,26.3135514 C0.0518678869,27.5708187 1.10572904,28.5753602 2.39888977,28.5753602 L14.5483529,28.5753602 C14.5265448,29.1039445 14.2265362,31.5016584 10.5763337,31.9515912 L10.6936258,31.9515912 C10.117185,31.9515912 9.6497846,32.4101988 9.6497846,32.9757956 C9.6497846,33.5413924 10.117185,34 10.6936258,34 L26.6972266,34 C27.2736674,34 27.7410678,33.5413924 27.7410678,32.9757956 C27.7416572,32.4096205 27.2742568,31.9510129 26.697816,31.9510129 Z M18.725486,27.2463812 C17.9899051,27.2463812 17.3934244,26.6611216 17.3934244,25.9399568 C17.3934244,25.2182137 17.9899051,24.632954 18.725486,24.632954 C19.4610669,24.632954 20.0575476,25.2182137 20.0575476,25.9399568 C20.0575476,26.6611216 19.4610669,27.2463812 18.725486,27.2463812 Z M43.5825814,32.276607 L43.5825814,30.7729755 L34.2151231,30.7729755 C34.2151231,30.7729755 34.2151231,30.7729755 34.2151231,30.7729755 C34.1827057,30.7729755 34.1502883,30.7706622 34.1184603,30.7671923 C33.6958549,30.71977 33.3675547,30.3681516 33.3675547,29.9413516 L33.3675547,13.4621286 C33.3675547,13.0029426 33.7471333,12.6305047 34.2151231,12.6305047 L46.0298026,12.6305047 C46.4977924,12.6305047 46.877371,13.0029426 46.877371,13.4621286 L46.877371,16.1287612 C46.9999679,16.1166165 47.1249223,16.110255 47.2504662,16.110255 L48.5925477,16.110255 L48.5925477,13.698083 C48.5925477,13.698083 48.5925477,13.698083 48.5925477,13.698083 L48.5925477,12.4373459 L48.5925477,12.4373459 C48.5925477,12.3540678 48.5866537,12.2719464 48.5760443,12.1915599 C48.5094412,11.6895783 48.2418501,11.249477 47.8551986,10.9516423 C47.842821,10.9423891 47.8316223,10.9325577 47.8192447,10.9233046 C47.8074565,10.9146298 47.795079,10.9071116 47.7832908,10.8990152 C47.5911439,10.7642666 47.373063,10.6624824 47.1367105,10.6040721 C46.9864115,10.5670596 46.8290396,10.5473967 46.6669524,10.5473967 L40.1215788,10.547975 L33.5762051,10.5473967 C33.5219796,10.5473967 33.4689329,10.54971 33.4158861,10.5537582 C33.045738,10.5838309 32.7050603,10.7162661 32.4239128,10.9227263 C31.9836252,11.2454287 31.6889213,11.7491453 31.6541462,12.3211036 C31.6517886,12.3592727 31.6506098,12.3974418 31.6506098,12.4361892 L31.6506098,13.6969264 C31.6506098,13.6969264 31.6506098,13.6969264 31.6506098,13.6969264 L31.6511992,17.8937933 L31.6506098,23.3242163 C31.6511992,23.3242163 31.6511992,23.3242163 31.6517886,23.323638 L31.6529674,32.1106292 C31.6529674,32.2326547 31.665345,32.3517885 31.6877425,32.4674525 C31.6877425,32.4680308 31.6877425,32.4686091 31.6883319,32.4697658 C31.7231069,32.6478883 31.7838159,32.817336 31.8657436,32.9740607 C31.8669224,32.9757956 31.8675118,32.9775306 31.8686907,32.9792655 C31.8940352,33.0272661 31.9217374,33.07411 31.9512078,33.1192189 C31.9553336,33.1261588 31.9600489,33.1330986 31.9647641,33.1394601 C31.9930557,33.1816775 32.0225261,33.2227382 32.0537647,33.2626422 C32.0608376,33.271317 32.0679105,33.2799918 32.0749834,33.2886666 C32.106222,33.3268357 32.13805,33.3638482 32.1722357,33.3991257 C32.1804874,33.4078005 32.1893285,33.415897 32.1975802,33.4245718 C32.2288188,33.4558011 32.2606468,33.486452 32.2942431,33.5159463 C32.2995478,33.5205729 32.304263,33.5257778 32.3095677,33.5304043 C32.3095677,33.5304043 32.3089783,33.5304043 32.3077995,33.5304043 C32.438648,33.6425984 32.5848211,33.7374428 32.7427824,33.8120461 C32.7445507,33.8126244 32.7457295,33.8132027 32.7474977,33.8143593 C32.7722528,33.8259257 32.797008,33.8369138 32.8223525,33.8473236 C32.8264783,33.8490585 32.8306042,33.8507935 32.8341406,33.8519501 C32.8382665,33.8536851 32.8423924,33.85542 32.8459288,33.8565767 C32.8553593,33.8606249 32.8647898,33.8640948 32.8742204,33.8675648 C32.8836509,33.8710347 32.8930814,33.8750829 32.9025119,33.8785528 C32.9143001,33.8831794 32.9266777,33.8872276 32.9384658,33.8912759 C32.9537904,33.8964808 32.969115,33.9016856 32.9844396,33.9063122 C32.9997642,33.9109387 33.0150888,33.9155653 33.0304134,33.9201919 C33.0422016,33.9236618 33.0545792,33.9271317 33.0669567,33.9300233 C33.0852284,33.9352282 33.1040894,33.9398547 33.1223611,33.943903 C33.1306128,33.9462163 33.1394539,33.9479512 33.148295,33.9496862 C33.1706925,33.9548911 33.1925006,33.9595176 33.2154875,33.9635659 C33.2190239,33.9641442 33.2231498,33.9647225 33.2266862,33.9653008 C33.3404419,33.9861203 33.4577341,33.9971084 33.5779733,33.9971084 L40.1221682,33.9965301 L40.1292411,33.9965301 L44.0299419,33.9965301 C43.7452579,33.4870303 43.5825814,32.9000357 43.5825814,32.276607 Z M40.1227576,33.3251008 C39.7932786,33.3251008 39.506237,33.144665 39.3594745,32.8792162 C39.2928714,32.7583474 39.2545599,32.6201289 39.2545599,32.4732357 C39.2545599,32.3263425 39.292282,32.188124 39.3594745,32.0672552 C39.506237,31.8018064 39.7932786,31.6213706 40.1227576,31.6213706 C40.4339649,31.6213706 40.7062713,31.7833002 40.8595173,32.0250378 C40.9420344,32.1557381 40.9909553,32.3089929 40.9909553,32.473814 C40.9909553,32.9434097 40.6019461,33.3251008 40.1227576,33.3251008 Z M53.2441541,33.9994217 C54.2096041,33.9994217 55,33.2244731 55,32.276607 L55,28.7719889 L55,21.1821197 L55,19.7097175 C55,18.7624296 54.2101935,17.9869028 53.2441541,17.9869028 L47.2510556,17.9869028 C46.2856056,17.9869028 45.4952097,18.7618513 45.4952097,19.7097175 L45.4952097,32.276607 C45.4952097,33.2238948 46.2850162,33.9994217 47.2510556,33.9994217 L53.2441541,33.9994217 Z M50.2476049,33.2400878 C49.7613434,33.2400878 49.3670296,32.8531918 49.3670296,32.376078 C49.3670296,31.8989641 49.7613434,31.5120682 50.2476049,31.5120682 C50.7338663,31.5120682 51.1281801,31.8989641 51.1281801,32.376078 C51.1281801,32.8531918 50.7338663,33.2400878 50.2476049,33.2400878 Z M47.0076302,21.0786005 L53.4209765,21.0786005 L53.4209765,30.9337484 L47.0076302,30.9337484 L47.0076302,21.0786005 Z" id="Shape"></path>
                </g>
            </g>
        </g>
    </g>
</svg>