<svg height="25" viewBox="0 0 94 25" width="94" xmlns="http://www.w3.org/2000/svg"><g fill="#ffffff" fill-rule="evenodd" transform="translate(0 -1)"><path d="m42.2467256 16.1286765c0-.3427752-.0840122-.6200156-.2520392-.8317297-.1680271-.2117141-.3965404-.3847793-.6855469-.5192009-.2890065-.1344217-.6132938-.2436376-.9728717-.3276511-.3595778-.0840135-.737633-.1663455-1.1341768-.2469985-.5242444-.1142584-1.0249574-.2503583-1.5021542-.4083037s-.8972581-.3763773-1.2601965-.6553021c-.3629383-.2789249-.6519405-.6334566-.8670151-1.0636058-.2150746-.4301493-.3226103-.9678277-.3226103-1.6130515 0-.71243465.1243381-1.33244511.3730181-1.86005.2486801-.52760489.5864093-.96446862 1.013198-1.31060432.4267887-.34613569.9275017-.60489344 1.5021542-.77628102.5746524-.17138757 1.2215468-.25708008 1.9407025-.25708008s1.4416612.0705703 2.1675379.21171301c.7258768.14114271 1.350928.32260919 1.8751724.54440487v2.11713006c-.6989925-.27556434-1.3694103-.47551351-2.0112736-.59985352-.6418632-.12434-1.2450713-.18650908-1.8096421-.18650908-.8132508 0-1.4399823.14786158-1.8802131.44358916s-.660343.7393123-.660343 1.33076742c0 .3427752.0722506.6250564.2167538.8468521.1445033.2217957.341092.4049424.589772.5494456.24868.1445033.5343217.2604402.8569336.3478142.3226119.0873741.6653819.1680259 1.0283203.2419578.5712919.1209794 1.1173716.2604398 1.6382554.4183852s.9829512.3780575 1.3862161.6603429c.4032649.2822855.7225115.6502591.9577493 1.1039321s.352855 1.0333576.352855 1.7390712c0 .7258767-.1344196 1.3542884-.4032629 1.8852539-.2688432.5309654-.6502589.9695094-1.1442583 1.3156451-.4939995.3461357-1.093847.6032132-1.7995606.7712402-.7057135.168027-1.4786263.2520393-2.3187615.2520393-.7325979 0-1.453423-.0722505-2.1624971-.2167538-.7090741-.1445032-1.2988401-.3478129-1.7693158-.6099351v-2.0868853c.665387.2890065 1.3139616.4990371 1.9457433.6300982.6317816.1310611 1.2837168.1965907 1.9558249.1965907.3898227 0 .7729186-.0319247 1.1492992-.095775.3763805-.0638503.7141098-.1730662 1.0131979-.3276511.2990882-.1545848.5393632-.3646155.7208324-.6300982s.2722024-.5931305.2722024-.9829532zm4.6347435 3.8713235v-13.48914292h2.4699851v13.48914292zm13.4359556-5.1516831h-3.0244715v-2.0667222h5.4944565v6.8050609c-.2016324.0739319-.4587099.1512231-.7712402.2318761s-.6620213.1529035-1.0484835.2167538c-.3864621.0638503-.7846802.1159379-1.1946662.1562644s-.8166053.0604894-1.2198702.0604894c-1.2097946 0-2.2666688-.1629838-3.1706543-.4889562-.9039854-.3259725-1.6567353-.7846794-2.258272-1.3761346-.6015368-.5914551-1.0518425-1.2954778-1.3509306-2.1120892-.2990882-.8166114-.44863-1.7189031-.44863-2.706902 0-.6989925.0789715-1.3660498.2369169-2.001192.1579455-.6351422.3898193-1.223228.6956285-1.76427507.3058092-.54104705.6771434-1.02999839 1.1140137-1.46686868s.9359031-.80988471 1.4971134-1.11905445c.5612103-.30916975 1.17618-.54608431 1.8449276-.71075081.6687476-.16466649 1.3862123-.24699851 2.1524155-.24699851.6788293 0 1.3240434.04872711 1.9356618.14618279s1.1123315.21675309 1.5021542.3578958v2.09696691c-.5242444-.16802703-1.0535216-.29572566-1.5878476-.38309972-.5343259-.08737406-1.0736846-.13106044-1.6180922-.13106044-.7325979 0-1.4181379.10921594-2.0566406.32765108-.6385028.21843515-1.1913034.54104222-1.6584186.96783089-.4671151.42678871-.8350888.95270541-1.1039321 1.57776601-.2688432.6250605-.4032628 1.3475659-.4032628 2.1675379.006721 1.5928963.4234218 2.7875506 1.2501148 3.5839987.8266931.7964482 1.9995042 1.1946663 3.5184686 1.1946663.2822854 0 .574648-.0151223.8770967-.0453671.3024487-.0302449.5679274-.0688905.7964442-.1159381zm11.7825778 1.5323989c.2957275-1.0619309.662021-2.2011371 1.0988913-3.4176528l2.328843-6.45220592h3.4680607v13.48914292h-2.4699851v-6.8353056c0-1.0014411.0403259-2.1641708.1209789-3.48822381h-.0907342c-.1142583.38310161-.248678.81324441-.4032628 1.29044121-.1545849.4771967-.3158884.9476654-.4839155 1.41142l-2.7925953 7.6216682h-1.5928883l-2.7925954-7.6216682c-.168027-.4637546-.3293306-.9342233-.4839154-1.41142-.1545849-.4771968-.2890045-.9073396-.4032629-1.29044121h-.0907342c.080653 1.24340001.1209789 2.40276921.1209789 3.47814221v6.8453872h-2.4699851v-13.48914292h3.4478976l2.328843 6.42196112c.3898227 1.068652.7561162 2.2179397 1.0988913 3.4478976zm17.1963818.1814683h-5.0811122l-1.3206859 3.4378159h-2.6312902l5.3533146-13.48914292h2.258272l5.3533146 13.48914292h-2.6111271zm-2.5607193-6.80506094c-.4704757 1.41142714-.8905369 2.59095914-1.2601964 3.53863164l-.4637523 1.1997071h3.4882238l-.4637523-1.1997071c-.3696595-.9543935-.7897208-2.1339256-1.2601965-3.53863164z"/><path d="m23.4082031 5.85595703c-.9462938 0-1.9423776-.02490209-2.9882812-.07470703v.09960938c.464846.41504113.9047831.90478233 1.3198242 1.46923828.4150411.56445594.7802719 1.18700831 1.0957031 1.86767578.3154313.68066746.5644522 1.41942956.7470703 2.21630856s.2739258 1.6435502.2739258 2.5400391c0 1.6435629-.2573216 3.1791921-.7719726 4.6069336-.5146511 1.4277415-1.2783153 2.6728462-2.2910157 3.7353515-1.0127003 1.0625054-2.2661058 1.9008759-3.7602539 2.5151368s-3.228994.9213867-5.2045898.9213867c-1.84278267 0-3.49462162-.3029755-4.95556642-.9089356-1.46094481-.60596-2.7018992-1.4526312-3.7229004-2.540039-1.02100119-1.0874078-1.80126683-2.3906174-2.34082031-3.909668s-.80932617-3.1916413-.80932617-5.0178223c0-2.573255.56029713-4.81444354 1.6809082-6.72363277s2.74339758-3.35351073 4.86840821-4.33300781c.46484607-.21582139.95458727-.40673745 1.46923828-.57275391.51465101-.16601645 1.08324884-.30297797 1.70581054-.41088867.62256167-.1079107 1.31151967-.19091768 2.06689457-.24902344.7553748-.05810576 1.5978957-.0871582 2.5275879-.0871582h12.1523437v4.85595703zm-10.2597656 0c-1.3945382 0-2.5317339.21581816-3.41162109.64746094-.87988722.43164278-1.58959692 1.00439096-2.12915039 1.71826172-.53955348.71387075-.92553595 1.53563988-1.15795899 2.46533201-.23242304.9296922-.34863281 1.8925732-.34863281 2.8886719 0 1.1787168.15356292 2.2246048.46069336 3.1376953s.72216535 1.6809051 1.24511719 2.3034668c.52295183.6225617 1.1455042 1.0957015 1.86767578 1.4194336.72217155.3237321 1.48998615.4855957 2.30346675.4855957 1.7929778 0 3.2040965-.6308531 4.2333985-1.8925781 1.029302-1.2617251 1.5439453-3.0463752 1.5439453-5.3540039 0-.9296922-.1037587-1.7846641-.3112793-2.5649414-.2075206-.7802774-.4814436-1.49413743-.8217773-2.1416016-.3403338-.64746417-.7263162-1.22851305-1.157959-1.74316406s-.8632791-.97118942-1.2949219-1.36962891z"/></g></svg>