<svg width="1691" height="352" viewBox="0 0 1691 352" fill="none" xmlns="http://www.w3.org/2000/svg">
<path d="M1163.29 0H1000.61C999.033 0 997.546 0.717921 996.567 1.9498L966.774 39.4417C964.088 42.823 966.495 47.812 970.814 47.812H1075.48C1079.85 47.812 1082.25 52.9091 1079.45 56.271L961.315 198.352C960.545 199.278 960.123 200.446 960.123 201.651V246.493C960.123 249.343 962.433 251.653 965.283 251.653H1006.04C1009.97 251.653 1012.45 255.859 1010.57 259.298L960.123 351.119L1098.48 208.539C1101.66 205.267 1099.34 199.786 1094.78 199.786H1056.31C1051.97 199.786 1049.57 194.754 1052.3 191.38L1167.3 49.2315C1168.04 48.3131 1168.45 47.1675 1168.45 45.9861V5.16003C1168.45 2.31022 1166.14 0 1163.29 0Z" fill="#FF6901"/>
<path fill-rule="evenodd" clip-rule="evenodd" d="M5.16475 251.806C1.55513 251.806 -0.939024 248.195 0.338963 244.819L91.1139 5.03625C91.8734 3.03016 93.7947 1.70312 95.9397 1.70312H160.27C162.415 1.70312 164.336 3.03016 165.096 5.03625L255.871 244.819C257.149 248.195 254.654 251.806 251.045 251.806H192.516C190.318 251.806 188.361 250.414 187.641 248.337L171.454 201.681C171.447 201.662 171.419 201.667 171.419 201.687C171.419 201.697 171.412 201.705 171.402 201.705H88.4191C86.2212 201.705 84.2645 203.097 83.5441 205.173L68.5689 248.337C67.8485 250.414 65.8918 251.806 63.6939 251.806H5.16475ZM151.757 144.907C152.92 148.259 150.43 151.758 146.882 151.758H109.328C105.779 151.758 103.29 148.259 104.453 144.907L123.23 90.7854C124.834 86.1605 131.375 86.1604 132.98 90.7854L151.757 144.907Z" fill="#F8F8F8"/>
<path d="M368.886 246.646C368.886 249.496 366.575 251.806 363.726 251.806H309.733C306.884 251.806 304.573 249.496 304.573 246.646V56.8838C304.573 54.034 302.263 51.7237 299.413 51.7237H234.703C231.853 51.7237 229.543 49.4135 229.543 46.5637V6.86315C229.543 4.01335 231.853 1.70312 234.703 1.70312H438.756C441.606 1.70312 443.917 4.01334 443.917 6.86315V46.5637C443.917 49.4135 441.606 51.7237 438.756 51.7237H374.046C371.196 51.7237 368.886 54.034 368.886 56.8838V246.646Z" fill="#F8F8F8"/>
<path d="M667.668 206.946C667.668 204.096 665.358 201.785 662.508 201.785H542.417C539.568 201.785 537.257 199.475 537.257 196.625V6.86315C537.257 4.01335 534.947 1.70312 532.097 1.70312H478.105C475.255 1.70312 472.945 4.01335 472.945 6.86315V246.646C472.945 249.496 475.255 251.806 478.105 251.806H662.508C665.358 251.806 667.668 249.496 667.668 246.646V206.946Z" fill="#F8F8F8"/>
<path d="M1116.37 251.864L1116.37 251.863H1085.5C1080.99 251.863 1078.65 246.497 1081.71 243.195L1114.99 207.298C1115.87 206.344 1116.37 205.091 1116.37 203.79V189.488C1116.37 188.278 1116.79 187.107 1117.57 186.179L1157.19 138.763C1160.29 135.062 1166.31 137.249 1166.31 142.072V246.704C1166.31 249.554 1164 251.864 1161.15 251.864H1116.37Z" fill="#F8F8F8"/>
<path fill-rule="evenodd" clip-rule="evenodd" d="M687.423 244.819C686.145 248.195 688.639 251.806 692.249 251.806H750.778C752.976 251.806 754.933 250.414 755.653 248.337L770.628 205.173C771.349 203.097 773.305 201.705 775.503 201.705H854.875C857.072 201.705 859.029 203.097 859.749 205.173L874.725 248.337C875.445 250.414 877.402 251.806 879.6 251.806H938.129C941.738 251.806 944.233 248.195 942.955 244.819L852.18 5.03625C851.42 3.03016 849.499 1.70312 847.354 1.70312H783.024C780.879 1.70312 778.957 3.03016 778.198 5.03625L687.423 244.819ZM833.966 151.758C837.514 151.758 840.004 148.259 838.841 144.907L820.064 90.7854C818.459 86.1604 811.918 86.1605 810.314 90.7854L791.537 144.907C790.374 148.259 792.863 151.758 796.412 151.758H833.966Z" fill="#F8F8F8"/>
<path d="M1193.78 224.097C1193.78 216.252 1200.14 209.892 1207.98 209.892H1230.59C1238.43 209.892 1244.79 216.252 1244.79 224.097V238.201C1244.79 246.046 1238.43 252.406 1230.59 252.406H1207.98C1200.14 252.406 1193.78 246.046 1193.78 238.201V224.097Z" fill="#F8F8F8"/>
<path d="M1313.49 185.149C1314.38 187.696 1317.98 187.696 1318.86 185.149L1363.7 55.9181C1364.09 54.7746 1365.17 54.008 1366.38 54.008H1415.51C1417.5 54.008 1418.88 55.9965 1418.17 57.8554L1345.22 250.57C1344.8 251.675 1343.74 252.406 1342.56 252.406H1289.8C1288.62 252.406 1287.56 251.675 1287.14 250.57L1214.18 57.8554C1213.48 55.9965 1214.85 54.008 1216.84 54.008H1265.97C1267.18 54.008 1268.26 54.7746 1268.66 55.9181L1313.49 185.149Z" fill="#F8F8F8"/>
<path d="M1489.35 249.564C1489.35 251.134 1488.08 252.406 1486.51 252.406H1441.17C1439.6 252.406 1438.33 251.134 1438.33 249.564V56.8492C1438.33 55.28 1439.6 54.0078 1441.17 54.0078H1486.51C1488.08 54.0078 1489.35 55.28 1489.35 56.8492V249.564Z" fill="#F8F8F8"/>
<path d="M1515.28 56.8492C1515.28 55.28 1516.55 54.0078 1518.12 54.0078H1634.32C1664.34 54.0078 1691 82.7555 1691 123.651C1691 165.423 1667.21 195.721 1634.32 195.721H1569.13C1567.57 195.721 1566.29 196.993 1566.29 198.562V249.564C1566.29 251.134 1565.02 252.406 1563.45 252.406H1518.12C1516.55 252.406 1515.28 251.134 1515.28 249.564V56.8492ZM1639.98 123.651C1639.98 112.314 1634.32 93.6874 1611.87 93.6874H1569.13C1567.57 93.6874 1566.29 94.9596 1566.29 96.5288V153.2C1566.29 154.769 1567.57 156.041 1569.13 156.041H1611.87C1634.32 156.041 1639.98 134.988 1639.98 123.651Z" fill="#F8F8F8"/>
</svg>
