
<svg version="1.0" xmlns="http://www.w3.org/2000/svg"
 width="3840.000000pt" height="2160.000000pt" viewBox="0 0 3840.000000 2160.000000"
 preserveAspectRatio="xMidYMid meet">

<g transform="translate(0.000000,2160.000000) scale(0.100000,-0.100000)"
fill="#000000" stroke="none">
<path d="M21735 21388 c-148 -75 -226 -105 -307 -117 -57 -9 -218 -18 -683
-37 l-160 -6 -105 -58 c-155 -85 -211 -112 -250 -121 -54 -12 -152 15 -287 80
-135 66 -186 82 -323 106 -52 9 -141 29 -197 46 -115 34 -103 35 -298 -16 -71
-19 -176 -41 -233 -49 -56 -9 -191 -39 -300 -67 -162 -42 -216 -52 -304 -55
-113 -4 -173 -19 -248 -61 -92 -53 -126 -89 -205 -223 -168 -286 -231 -476
-206 -617 21 -113 68 -141 321 -191 102 -20 197 -44 228 -59 61 -29 101 -80
109 -140 9 -70 -77 -360 -254 -853 -53 -146 -99 -268 -102 -273 -6 -6 -459 89
-470 99 -2 2 26 104 62 226 113 379 126 461 88 536 -26 51 -50 67 -288 186
-164 82 -426 228 -452 252 -7 7 19 102 51 186 17 43 69 137 119 215 50 76 109
176 131 223 23 47 52 100 66 119 42 57 62 124 62 210 0 90 -10 124 -48 164
-49 51 -107 60 -390 59 -407 -2 -479 -18 -662 -147 -113 -80 -215 -168 -434
-372 l-198 -187 6 -535 7 -536 74 -153 c41 -84 94 -181 116 -215 57 -85 186
-209 298 -287 116 -81 148 -105 468 -361 411 -328 475 -369 743 -474 201 -79
275 -121 350 -202 98 -105 138 -210 191 -508 48 -276 113 -495 190 -645 26
-52 52 -130 83 -255 77 -309 126 -531 147 -667 11 -72 29 -176 39 -232 67
-344 101 -787 66 -854 -24 -46 -155 -122 -211 -122 -32 0 -78 57 -124 155 -44
91 -74 181 -126 375 -39 149 -103 292 -159 356 -55 64 -121 101 -231 129 -212
55 -446 218 -856 597 -151 139 -218 187 -329 233 -225 94 -398 202 -520 325
-103 103 -164 192 -179 260 -21 98 -8 325 39 675 60 448 21 753 -116 904 -99
111 -232 106 -312 -12 -109 -158 -289 -642 -382 -1026 -82 -336 -91 -368 -128
-446 -21 -44 -59 -110 -85 -147 -53 -79 -63 -114 -47 -183 27 -123 183 -464
264 -578 24 -34 71 -110 103 -168 l60 -105 -38 -130 c-21 -71 -50 -175 -65
-232 -34 -134 -30 -144 84 -246 48 -43 249 -235 447 -425 473 -456 518 -496
643 -580 128 -86 217 -112 457 -136 240 -23 327 -51 360 -116 16 -30 23 -189
45 -964 16 -594 26 -628 272 -967 l114 -157 22 -224 c36 -363 44 -586 44
-1277 0 -683 -9 -999 -42 -1482 l-20 -287 59 -83 c68 -96 240 -282 619 -671
370 -378 424 -445 532 -648 l58 -110 -9 -347 c-17 -675 -37 -1057 -59 -1157
-14 -63 -48 -423 -70 -745 -36 -521 -70 -967 -95 -1270 -13 -162 -41 -495 -60
-740 -56 -699 -106 -1172 -141 -1334 -24 -107 -22 -182 5 -236 46 -90 346
-367 534 -492 89 -60 113 -62 126 -10 40 153 64 470 81 1067 16 585 30 1000
40 1265 6 135 26 740 45 1345 19 605 40 1208 47 1340 26 517 17 646 -72 1045
-38 171 -64 322 -95 547 -19 137 -44 238 -91 362 -19 52 -37 111 -39 131 -2
21 -13 67 -24 103 -40 129 -65 461 -76 997 -11 512 -39 678 -158 931 -80 171
-446 701 -628 909 l-57 66 4 104 c2 58 9 247 15 420 19 591 60 842 153 935 51
51 88 25 162 -114 64 -122 137 -205 335 -382 397 -355 440 -430 355 -619 -92
-205 -90 -199 -91 -370 0 -184 10 -234 121 -622 40 -143 87 -325 104 -406 32
-151 76 -264 107 -276 24 -10 60 30 83 92 11 30 41 185 66 346 25 160 57 345
71 411 34 161 42 365 19 498 -19 112 -74 275 -123 367 -35 65 -35 66 -29 160
16 257 82 342 515 668 186 140 338 277 442 402 40 48 48 53 62 42 31 -26 42
-83 41 -207 -2 -166 -24 -276 -104 -514 -79 -236 -115 -367 -166 -606 -70
-332 -195 -872 -229 -997 -80 -288 -190 -565 -294 -741 -89 -151 -95 -182 -96
-482 0 -137 6 -313 13 -390 25 -268 62 -585 94 -792 31 -203 32 -219 37 -653
l6 -445 44 -100 c80 -183 96 -332 106 -950 7 -501 14 -706 31 -930 18 -240 29
-1155 16 -1285 -6 -52 -22 -158 -36 -235 -38 -204 -93 -595 -111 -780 -44
-483 -67 -1626 -37 -1910 19 -183 34 -266 48 -272 48 -18 497 334 613 481 26
34 61 80 76 104 l28 42 -6 738 c-7 761 -12 888 -46 1082 -11 63 -25 160 -31
215 -6 55 -22 164 -36 242 -13 78 -29 208 -34 290 -5 84 -7 607 -4 1213 4 742
2 1098 -6 1175 -15 152 -49 315 -115 550 -91 320 -96 352 -101 590 l-5 210
107 90 c157 133 352 328 424 425 118 159 165 299 141 426 -6 36 -29 105 -51
152 -61 138 -83 247 -95 487 -11 201 21 709 75 1200 17 149 37 333 45 410 46
417 124 718 198 753 65 31 180 345 206 562 15 123 20 422 10 592 -11 183 -30
276 -68 337 -16 25 -43 80 -59 121 -17 41 -49 116 -72 165 -51 110 -70 192
-70 311 0 171 36 280 119 363 25 25 96 88 156 140 61 51 214 190 342 308 l232
214 76 232 c124 381 264 710 392 923 34 55 104 181 156 280 208 396 312 532
725 942 l265 263 -22 72 c-31 108 -41 222 -48 544 l-6 292 -183 168 c-155 141
-184 171 -184 195 0 52 40 491 71 778 47 432 37 608 -35 626 -35 9 -90 -19
-153 -78 -108 -102 -169 -225 -223 -453 -36 -150 -65 -224 -129 -330 -57 -92
-93 -192 -116 -320 -123 -684 -227 -971 -473 -1298 -136 -181 -299 -335 -464
-440 -31 -19 -150 -83 -265 -141 -114 -58 -278 -144 -363 -191 -85 -48 -240
-132 -345 -187 -526 -278 -549 -308 -665 -828 -77 -342 -99 -401 -156 -420
-52 -18 -91 -4 -126 43 -76 106 -89 160 -89 373 -1 184 12 290 48 412 50 172
43 234 -40 354 -61 90 -82 154 -81 253 0 64 6 93 27 142 58 133 57 264 -3 459
-56 180 -72 311 -46 362 18 35 110 122 129 122 8 0 46 27 85 60 69 57 141 112
448 337 76 56 159 120 184 143 25 23 59 48 75 57 62 32 94 65 138 140 49 84
90 127 207 218 41 32 100 85 131 118 l56 60 139 8 c163 9 250 32 454 116 424
175 534 252 655 455 56 95 174 347 200 428 28 87 44 121 88 185 69 103 158
204 223 255 74 58 94 92 101 169 8 87 -11 176 -62 295 -61 144 -96 265 -102
351 -4 57 0 83 21 144 39 111 36 131 -39 279 -85 168 -139 234 -239 295 -44
26 -82 47 -85 46 -3 0 -60 -27 -126 -61z"/>
<path d="M23368 15882 c-630 -681 -978 -1298 -1128 -2000 l-22 -103 93 -97
c1031 -1068 1522 -1584 2258 -2372 346 -370 401 -440 556 -710 232 -403 368
-767 437 -1166 18 -107 22 -168 22 -359 1 -242 -7 -315 -50 -487 -149 -594
-575 -1034 -1202 -1241 -267 -88 -486 -125 -808 -134 -188 -5 -484 7 -549 23
-35 9 147 -156 245 -222 238 -158 559 -267 895 -304 149 -16 458 -14 620 5
586 68 1139 295 1598 657 141 111 365 340 472 483 519 689 667 1482 484 2580
-251 1500 -1022 2972 -2215 4227 -436 458 -1045 984 -1549 1335 l-30 21 -127
-136z"/>
<path d="M14024 14578 c-323 -276 -738 -677 -994 -958 -542 -596 -1006 -1262
-1329 -1908 -532 -1063 -754 -2192 -635 -3221 69 -604 277 -1215 558 -1646
322 -492 893 -842 1606 -985 402 -81 874 -84 1237 -10 483 100 857 295 1092
572 67 79 169 234 159 243 -3 3 -69 -6 -148 -20 -549 -96 -1018 -99 -1450 -9
-302 63 -593 187 -823 351 -105 75 -273 237 -352 338 -200 258 -325 566 -371
918 -24 186 -15 532 20 732 72 412 213 794 447 1215 138 249 272 414 613 756
415 415 893 837 1881 1660 281 234 751 623 773 640 2 1 -17 42 -42 91 -150
288 -329 411 -861 593 -254 86 -349 135 -550 286 -235 175 -672 464 -702 464
-5 0 -64 -46 -129 -102z"/>
<path d="M17366 7489 c-9 -48 -7 -794 4 -974 23 -398 67 -724 175 -1315 18
-102 45 -284 60 -405 14 -121 35 -257 46 -301 10 -45 39 -225 64 -400 59 -424
74 -504 93 -511 8 -4 21 1 27 11 33 45 73 523 115 1371 11 226 27 502 35 615
8 113 21 347 30 520 18 382 44 814 50 855 5 28 -6 42 -137 171 -211 208 -329
304 -455 368 -72 36 -99 35 -107 -5z"/>
<path d="M20650 7179 c-126 -84 -203 -159 -237 -227 -27 -55 -28 -63 -27 -202
1 -210 72 -717 124 -885 58 -188 92 -549 105 -1095 9 -366 23 -598 45 -735 33
-209 57 -468 75 -827 4 -71 10 -362 14 -647 4 -367 9 -523 17 -531 30 -30 105
68 135 176 61 220 89 764 89 1749 0 675 7 877 41 1130 55 419 68 544 74 700 7
188 -1 282 -41 465 -41 186 -245 964 -256 978 -22 26 -66 12 -158 -49z"/>
</g>
</svg>
