<svg width="1403" height="422" viewBox="0 0 1403 422" fill="none" xmlns="http://www.w3.org/2000/svg">
<path d="M1396.8 0H1201.47C1199.58 0 1197.79 0.862035 1196.62 2.3412L1160.84 47.3592C1157.62 51.4192 1160.51 57.4097 1165.69 57.4097H1291.37C1296.62 57.4097 1299.49 63.53 1296.14 67.5668L1154.29 238.169C1153.36 239.281 1152.86 240.683 1152.86 242.13V295.974C1152.86 299.396 1155.63 302.17 1159.05 302.17H1208C1212.71 302.17 1215.69 307.22 1213.43 311.349L1152.86 421.603L1318.99 250.401C1322.8 246.472 1320.02 239.891 1314.54 239.891H1268.36C1263.15 239.891 1260.26 233.849 1263.54 229.798L1401.62 59.1142C1402.51 58.0114 1403 56.6358 1403 55.2173V6.19585C1403 2.77397 1400.23 0 1396.8 0Z" fill="#FF8000"/>
<path fill-rule="evenodd" clip-rule="evenodd" d="M6.20152 302.355C1.86731 302.355 -1.12752 298.019 0.407006 293.966L109.404 6.04908C110.316 3.6403 112.623 2.04688 115.199 2.04688H192.442C195.018 2.04688 197.325 3.6403 198.237 6.04908L307.234 293.966C308.768 298.019 305.773 302.355 301.439 302.355H231.161C228.522 302.355 226.172 300.683 225.307 298.19L205.871 242.168C205.863 242.146 205.83 242.151 205.83 242.175C205.83 242.187 205.82 242.197 205.809 242.197H106.168C103.529 242.197 101.18 243.868 100.315 246.362L82.3333 298.19C81.4683 300.683 79.1188 302.355 76.4797 302.355H6.20152ZM182.22 173.997C183.617 178.023 180.627 182.224 176.366 182.224H131.274C127.013 182.224 124.024 178.023 125.421 173.997L147.967 109.011C149.893 103.458 157.747 103.458 159.674 109.011L182.22 173.997Z" fill="#121212"/>
<path d="M442.935 296.159C442.935 299.581 440.161 302.355 436.739 302.355H371.909C368.487 302.355 365.713 299.581 365.713 296.159V68.3044C365.713 64.8825 362.939 62.1086 359.517 62.1086H281.816C278.395 62.1086 275.621 59.3346 275.621 55.9127V8.24272C275.621 4.82085 278.395 2.04688 281.816 2.04688H526.832C530.254 2.04688 533.028 4.82084 533.028 8.24271V55.9127C533.028 59.3346 530.254 62.1086 526.832 62.1086H449.131C445.709 62.1086 442.935 64.8825 442.935 68.3044V296.159Z" fill="#121212"/>
<path d="M801.695 248.489C801.695 245.067 798.921 242.294 795.499 242.294H651.302C647.88 242.294 645.106 239.52 645.106 236.098V8.24272C645.106 4.82085 642.332 2.04688 638.91 2.04688H574.079C570.658 2.04688 567.884 4.82085 567.884 8.24272V296.159C567.884 299.581 570.658 302.355 574.079 302.355H795.499C798.921 302.355 801.695 299.581 801.695 296.159V248.489Z" fill="#121212"/>
<path d="M1340.46 302.424L1340.46 302.423H1303.4C1297.99 302.423 1295.18 295.981 1298.85 292.015L1338.81 248.912C1339.87 247.767 1340.46 246.262 1340.46 244.7V227.527C1340.46 226.075 1340.97 224.669 1341.91 223.554L1389.49 166.62C1393.2 162.176 1400.44 164.802 1400.44 170.593V296.229C1400.44 299.65 1397.66 302.424 1394.24 302.424H1340.46Z" fill="#121212"/>
<path fill-rule="evenodd" clip-rule="evenodd" d="M825.415 293.966C823.881 298.019 826.876 302.355 831.21 302.355H901.488C904.127 302.355 906.477 300.683 907.342 298.19L925.323 246.362C926.188 243.868 928.537 242.197 931.177 242.197H1026.48C1029.12 242.197 1031.47 243.868 1032.33 246.362L1050.32 298.19C1051.18 300.683 1053.53 302.355 1056.17 302.355H1126.45C1130.78 302.355 1133.78 298.019 1132.24 293.966L1023.25 6.04908C1022.33 3.6403 1020.03 2.04688 1017.45 2.04688H940.207C937.631 2.04688 935.324 3.6403 934.412 6.04908L825.415 293.966ZM1001.37 182.224C1005.64 182.224 1008.62 178.023 1007.23 173.997L984.682 109.011C982.756 103.458 974.902 103.458 972.975 109.011L950.429 173.997C949.032 178.023 952.022 182.224 956.283 182.224H1001.37Z" fill="#121212"/>
</svg>
